name C:\Users\u0101727\Documents\MyRepositories\upper-imu-dc\OpenSim\subject0\MA\MA_Splines\angle_in_n3_dof9_1.mot
datacolumns 10
datarows 56
range 124.21000000 124.76000000
endheader 
time	clav_prot	clav_elev	scapula_abduction	scapula_elevation	scapula_upward_rot	scapula_winging	plane_elv	shoulder_elv	axial_rot	
        124.21000000	        -44.34577705	         -7.65248351	        -30.88730313	         -0.36668095	          8.23102828	        -12.40251587	         70.85495313	         91.29427006	         13.30510256	
        124.22000000	        -30.62585626	         -7.65248351	        -30.88730313	         -0.36668095	          8.23102828	        -12.40251587	         70.85495313	         91.29427006	         13.30510256	
        124.23000000	        -16.90593547	         -7.65248351	        -30.88730313	         -0.36668095	          8.23102828	        -12.40251587	         70.85495313	         91.29427006	         13.30510256	
        124.24000000	        -44.34577705	          4.60560848	        -30.88730313	         -0.36668095	          8.23102828	        -12.40251587	         70.85495313	         91.29427006	         13.30510256	
        124.25000000	        -30.62585626	          4.60560848	        -30.88730313	         -0.36668095	          8.23102828	        -12.40251587	         70.85495313	         91.29427006	         13.30510256	
        124.26000000	        -16.90593547	          4.60560848	        -30.88730313	         -0.36668095	          8.23102828	        -12.40251587	         70.85495313	         91.29427006	         13.30510256	
        124.27000000	        -44.34577705	         16.86370047	        -30.88730313	         -0.36668095	          8.23102828	        -12.40251587	         70.85495313	         91.29427006	         13.30510256	
        124.28000000	        -30.62585626	         16.86370047	        -30.88730313	         -0.36668095	          8.23102828	        -12.40251587	         70.85495313	         91.29427006	         13.30510256	
        124.29000000	        -16.90593547	         16.86370047	        -30.88730313	         -0.36668095	          8.23102828	        -12.40251587	         70.85495313	         91.29427006	         13.30510256	
        124.30000000	        -44.34577705	         -7.65248351	         -9.79969714	         -0.36668095	          8.23102828	        -12.40251587	         70.85495313	         91.29427006	         13.30510256	
        124.31000000	        -30.62585626	         -7.65248351	         -9.79969714	         -0.36668095	          8.23102828	        -12.40251587	         70.85495313	         91.29427006	         13.30510256	
        124.32000000	        -16.90593547	         -7.65248351	         -9.79969714	         -0.36668095	          8.23102828	        -12.40251587	         70.85495313	         91.29427006	         13.30510256	
        124.33000000	        -44.34577705	          4.60560848	         -9.79969714	         -0.36668095	          8.23102828	        -12.40251587	         70.85495313	         91.29427006	         13.30510256	
        124.34000000	        -30.62585626	          4.60560848	         -9.79969714	         -0.36668095	          8.23102828	        -12.40251587	         70.85495313	         91.29427006	         13.30510256	
        124.35000000	        -16.90593547	          4.60560848	         -9.79969714	         -0.36668095	          8.23102828	        -12.40251587	         70.85495313	         91.29427006	         13.30510256	
        124.36000000	        -44.34577705	         16.86370047	         -9.79969714	         -0.36668095	          8.23102828	        -12.40251587	         70.85495313	         91.29427006	         13.30510256	
        124.37000000	        -30.62585626	         16.86370047	         -9.79969714	         -0.36668095	          8.23102828	        -12.40251587	         70.85495313	         91.29427006	         13.30510256	
        124.38000000	        -16.90593547	         16.86370047	         -9.79969714	         -0.36668095	          8.23102828	        -12.40251587	         70.85495313	         91.29427006	         13.30510256	
        124.39000000	        -44.34577705	         -7.65248351	         11.28790885	         -0.36668095	          8.23102828	        -12.40251587	         70.85495313	         91.29427006	         13.30510256	
        124.40000000	        -30.62585626	         -7.65248351	         11.28790885	         -0.36668095	          8.23102828	        -12.40251587	         70.85495313	         91.29427006	         13.30510256	
        124.41000000	        -16.90593547	         -7.65248351	         11.28790885	         -0.36668095	          8.23102828	        -12.40251587	         70.85495313	         91.29427006	         13.30510256	
        124.42000000	        -44.34577705	          4.60560848	         11.28790885	         -0.36668095	          8.23102828	        -12.40251587	         70.85495313	         91.29427006	         13.30510256	
        124.43000000	        -30.62585626	          4.60560848	         11.28790885	         -0.36668095	          8.23102828	        -12.40251587	         70.85495313	         91.29427006	         13.30510256	
        124.44000000	        -16.90593547	          4.60560848	         11.28790885	         -0.36668095	          8.23102828	        -12.40251587	         70.85495313	         91.29427006	         13.30510256	
        124.45000000	        -44.34577705	         16.86370047	         11.28790885	         -0.36668095	          8.23102828	        -12.40251587	         70.85495313	         91.29427006	         13.30510256	
        124.46000000	        -30.62585626	         16.86370047	         11.28790885	         -0.36668095	          8.23102828	        -12.40251587	         70.85495313	         91.29427006	         13.30510256	
        124.47000000	        -16.90593547	         16.86370047	         11.28790885	         -0.36668095	          8.23102828	        -12.40251587	         70.85495313	         91.29427006	         13.30510256	
        124.48000000	        -44.34577705	         -7.65248351	        -30.88730313	          7.08700750	          8.23102828	        -12.40251587	         70.85495313	         91.29427006	         13.30510256	
        124.49000000	        -30.62585626	         -7.65248351	        -30.88730313	          7.08700750	          8.23102828	        -12.40251587	         70.85495313	         91.29427006	         13.30510256	
        124.50000000	        -16.90593547	         -7.65248351	        -30.88730313	          7.08700750	          8.23102828	        -12.40251587	         70.85495313	         91.29427006	         13.30510256	
        124.51000000	        -44.34577705	          4.60560848	        -30.88730313	          7.08700750	          8.23102828	        -12.40251587	         70.85495313	         91.29427006	         13.30510256	
        124.52000000	        -30.62585626	          4.60560848	        -30.88730313	          7.08700750	          8.23102828	        -12.40251587	         70.85495313	         91.29427006	         13.30510256	
        124.53000000	        -16.90593547	          4.60560848	        -30.88730313	          7.08700750	          8.23102828	        -12.40251587	         70.85495313	         91.29427006	         13.30510256	
        124.54000000	        -44.34577705	         16.86370047	        -30.88730313	          7.08700750	          8.23102828	        -12.40251587	         70.85495313	         91.29427006	         13.30510256	
        124.55000000	        -30.62585626	         16.86370047	        -30.88730313	          7.08700750	          8.23102828	        -12.40251587	         70.85495313	         91.29427006	         13.30510256	
        124.56000000	        -16.90593547	         16.86370047	        -30.88730313	          7.08700750	          8.23102828	        -12.40251587	         70.85495313	         91.29427006	         13.30510256	
        124.57000000	        -44.34577705	         -7.65248351	         -9.79969714	          7.08700750	          8.23102828	        -12.40251587	         70.85495313	         91.29427006	         13.30510256	
        124.58000000	        -30.62585626	         -7.65248351	         -9.79969714	          7.08700750	          8.23102828	        -12.40251587	         70.85495313	         91.29427006	         13.30510256	
        124.59000000	        -16.90593547	         -7.65248351	         -9.79969714	          7.08700750	          8.23102828	        -12.40251587	         70.85495313	         91.29427006	         13.30510256	
        124.60000000	        -44.34577705	          4.60560848	         -9.79969714	          7.08700750	          8.23102828	        -12.40251587	         70.85495313	         91.29427006	         13.30510256	
        124.61000000	        -30.62585626	          4.60560848	         -9.79969714	          7.08700750	          8.23102828	        -12.40251587	         70.85495313	         91.29427006	         13.30510256	
        124.62000000	        -16.90593547	          4.60560848	         -9.79969714	          7.08700750	          8.23102828	        -12.40251587	         70.85495313	         91.29427006	         13.30510256	
        124.63000000	        -44.34577705	         16.86370047	         -9.79969714	          7.08700750	          8.23102828	        -12.40251587	         70.85495313	         91.29427006	         13.30510256	
        124.64000000	        -30.62585626	         16.86370047	         -9.79969714	          7.08700750	          8.23102828	        -12.40251587	         70.85495313	         91.29427006	         13.30510256	
        124.65000000	        -16.90593547	         16.86370047	         -9.79969714	          7.08700750	          8.23102828	        -12.40251587	         70.85495313	         91.29427006	         13.30510256	
        124.66000000	        -44.34577705	         -7.65248351	         11.28790885	          7.08700750	          8.23102828	        -12.40251587	         70.85495313	         91.29427006	         13.30510256	
        124.67000000	        -30.62585626	         -7.65248351	         11.28790885	          7.08700750	          8.23102828	        -12.40251587	         70.85495313	         91.29427006	         13.30510256	
        124.68000000	        -16.90593547	         -7.65248351	         11.28790885	          7.08700750	          8.23102828	        -12.40251587	         70.85495313	         91.29427006	         13.30510256	
        124.69000000	        -44.34577705	          4.60560848	         11.28790885	          7.08700750	          8.23102828	        -12.40251587	         70.85495313	         91.29427006	         13.30510256	
        124.70000000	        -30.62585626	          4.60560848	         11.28790885	          7.08700750	          8.23102828	        -12.40251587	         70.85495313	         91.29427006	         13.30510256	
        124.71000000	        -16.90593547	          4.60560848	         11.28790885	          7.08700750	          8.23102828	        -12.40251587	         70.85495313	         91.29427006	         13.30510256	
        124.72000000	        -44.34577705	         16.86370047	         11.28790885	          7.08700750	          8.23102828	        -12.40251587	         70.85495313	         91.29427006	         13.30510256	
        124.73000000	        -30.62585626	         16.86370047	         11.28790885	          7.08700750	          8.23102828	        -12.40251587	         70.85495313	         91.29427006	         13.30510256	
        124.74000000	        -16.90593547	         16.86370047	         11.28790885	          7.08700750	          8.23102828	        -12.40251587	         70.85495313	         91.29427006	         13.30510256	
        124.75000000	        -44.34577705	         -7.65248351	        -30.88730313	         -7.82036939	         46.86245639	        -12.40251587	         70.85495313	         91.29427006	         13.30510256	
        124.76000000	        -30.62585626	         -7.65248351	        -30.88730313	         -7.82036939	         46.86245639	        -12.40251587	         70.85495313	         91.29427006	         13.30510256	
